PathFileType	4	(X/Y/Z)	Run_400 01
DataRate	CameraRate	NumFrames	NumMarkers	Units	OrigDataRate	OrigDataStartFrame	OrigNumFrames
120	120	6	42	mm	120	175	128
Frame#	Time	LASI			RASI			LPSI			RPSI			RTH1			RTH2			RTH3			LTH1			LTH2			LTH3			RTB1			RTB2			RTB3			LTB1			LTB2			LTB3			RCAL			RTOE			RMT5			LCAL			LTOE			LMT5			LACR			RACR			CLAV			C7			RUA1			RUA2			RUA3			RLEL			RMEL			LUA1			LUA2			LUA3			LLEL			LMEL			RFAsuperior			RFAradius			RFAulna			LFAsuperior			LFAradius			LFAulna			
		X1	Y1	Z1	X2	Y2	Z2	X3	Y3	Z3	X4	Y4	Z4	X5	Y5	Z5	X6	Y6	Z6	X7	Y7	Z7	X8	Y8	Z8	X9	Y9	Z9	X10	Y10	Z10	X11	Y11	Z11	X12	Y12	Z12	X13	Y13	Z13	X14	Y14	Z14	X15	Y15	Z15	X16	Y16	Z16	X17	Y17	Z17	X18	Y18	Z18	X19	Y19	Z19	X20	Y20	Z20	X21	Y21	Z21	X22	Y22	Z22	X23	Y23	Z23	X24	Y24	Z24	X25	Y25	Z25	X26	Y26	Z26	X27	Y27	Z27	X28	Y28	Z28	X29	Y29	Z29	X30	Y30	Z30	X31	Y31	Z31	X32	Y32	Z32	X33	Y33	Z33	X34	Y34	Z34	X35	Y35	Z35	X36	Y36	Z36	X37	Y37	Z37	X38	Y38	Z38	X39	Y39	Z39	X40	Y40	Z40	X41	Y41	Z41	X42	Y42	Z42	

175	1.533333	739.322785	965.789075	-497.679671	714.749549	975.6884700000001	-246.249543	563.234793	996.013832	-431.033451	553.8939370000001	1003.103444	-344.931377	666.125534	791.089968	-215.609077	723.7801459999999	670.113843	-248.477525	633.965477	547.064396	-255.312359	732.467943	828.298051	-540.319397	840.1887860000001	758.76867	-522.938669	842.850473	614.209021	-534.114945	626.12969	336.891439	-335.546438	560.226823	294.094453	-285.377506	514.080271	196.435588	-362.378846	786.881607	459.815925	-452.837319	679.578355	477.104511	-515.9433770000001	596.692121	456.905821	-449.259745	337.675844	117.155013	-368.843181	549.611011	61.616145	-368.850363	515.143993	62.653064	-282.083251	449.703581	544.540858	-474.265666	498.505623	334.388222	-439.104827	474.688471	343.75661	-528.756726	719.096298	1428.0043	-556.860624	718.013341	1409.898028	-180.337578	820.663729	1370.866107	-342.885124	695.979452	1472.98377	-368.532453	690.738147	1298.156485	-123.424748	712.552564	1233.465203	-117.368156	611.659227	1210.459156	-96.488602	647.3929460000001	1137.165522	-47.574959	611.492336	1098.363632	-119.727232	661.342136	1376.404503	-608.073806	581.71941	1338.429028	-582.12314	609.555571	1302.580588	-646.723928	541.525853	1218.415996	-688.536194	493.700096	1196.634566	-618.400031	731.816539	1138.7423	-65.170912	879.592125	1148.770763	-146.067094	866.685997	1083.180784	-129.005841	602.768141	1177.461731	-679.7655140000001	723.61522	1080.293835	-584.236499	685.004757	1037.934212	-621.06598	
176	1.541667	742.009791	973.118908	-495.622921	717.0287039999999	979.03386	-246.313792	565.586536	1001.839162	-430.996857	556.336879	1008.362499	-344.457904	660.183353	794.011071	-216.481735	709.97726	670.690705	-249.881097	612.5798579999999	552.197671	-256.41957	737.940667	837.744187	-539.473472	847.049428	771.8115749999999	-520.7171990000001	856.169398	628.087237	-533.242247	597.689597	341.337314	-334.876426	530.765629	300.02101	-284.754307	484.343324	201.653755	-361.339306	808.263506	464.408902	-451.27512	699.556618	472.328787	-514.4423430000001	618.33618	444.340267	-448.34637	307.161721	124.852624	-367.359697	517.607331	62.55278	-370.455658	481.517323	62.750348	-282.476162	463.54908	517.465387	-471.156489	534.247198	312.636204	-440.741061	509.294272	321.642501	-530.143633	714.091	1435.042516	-556.669007	724.2875340000001	1415.291224	-180.679982	821.766763	1377.099028	-346.906986	696.248565	1478.538622	-368.070194	700.409556	1301.785193	-124.902461	723.117056	1237.323155	-121.036908	623.4772819999999	1213.147878	-94.91953599999999	661.430367	1139.63276	-50.571954	622.6217789999999	1101.329371	-122.187908	655.039211	1385.286308	-607.0252840000001	576.130311	1347.964896	-579.697882	601.5724269999999	1312.442334	-645.724871	531.971859	1229.754778	-686.806241	485.967268	1207.600007	-615.49863	744.696377	1144.916112	-71.580217	887.772781	1161.765206	-158.152648	878.4758849999999	1095.393636	-142.162616	593.237607	1189.59884	-679.289341	716.354504	1092.355297	-588.294632	676.772945	1049.285044	-622.590157	
177	1.55	744.637817	980.386517	-493.394483	720.08653	982.746141	-246.236086	568.247263	1007.91604	-431.03078	559.396282	1013.937832	-343.834928	654.511788	797.527549	-217.314349	696.514626	672.522145	-251.114606	591.826418	559.17045	-257.598051	743.871035	847.5557219999999	-538.687954	853.516042	784.209826	-518.331712	867.839064	641.365157	-532.260862	569.697321	348.035996	-334.426906	502.657199	307.95	-283.680876	455.632653	208.813111	-359.95812	828.600908	468.542298	-450.030257	719.445751	466.849006	-513.023196	640.568202	430.906958	-447.280655	278.414263	134.810102	-365.395369	486.363051	63.537668	-372.687601	448.198482	63.000612	-283.011181	479.560968	488.388184	-467.368502	571.682153	291.354405	-441.940696	545.259332	299.77931	-531.289033	709.601213	1442.241916	-556.3105389999999	730.486113	1421.219803	-181.399587	822.7147629999999	1383.847707	-350.872253	696.316099	1484.111033	-367.949883	710.196807	1306.229277	-126.399596	733.5576150000001	1241.966093	-124.978691	635.5170879999999	1216.997396	-92.917997	675.305106	1143.332684	-53.249433	633.322819	1105.398016	-123.948087	649.524532	1394.556236	-605.995932	571.219677	1357.997163	-577.415151	594.5519849999999	1322.73739	-644.728674	523.57871	1241.646051	-685.226937	478.767182	1218.953928	-612.864835	757.105971	1151.968141	-77.59883000000001	894.761534	1174.953218	-170.40376	888.684681	1107.92103	-155.966366	584.790674	1202.186215	-678.894378	709.530673	1104.517561	-592.03467	669.413903	1060.989258	-624.409054	
178	1.558333	746.989876	987.343854	-491.02681	723.658199	986.633903	-245.904684	571.1625759999999	1014.187287	-431.149874	562.804407	1019.620374	-343.021626	649.109962	801.766059	-217.875256	683.702541	675.527407	-252.23602	572.03566	567.915198	-258.514603	750.220546	857.551002	-538.091174	859.611969	796.004712	-516.135009	877.808457	653.65931	-531.073118	542.656391	357.039874	-333.835744	476.113417	317.858746	-281.960885	428.506313	217.905056	-357.920321	848.045534	472.07663	-449.326215	739.145621	460.623079	-511.741232	663.824572	416.54237	-446.073088	252.056405	147.002697	-363.23277	455.389671	63.82138	-374.286022	415.520529	63.504478	-283.526326	498.23705	457.730961	-463.340293	610.509437	270.825706	-442.652384	582.32957	278.213864	-532.050282	705.681061	1449.317666	-555.862654	736.402982	1427.512985	-182.530055	823.417643	1390.909846	-354.733893	696.316732	1489.601712	-368.086812	719.81643	1311.394538	-127.93431	743.572625	1247.246892	-129.12477	647.578179	1221.767632	-90.696567	688.816373	1148.004675	-55.63354	643.647937	1110.326527	-124.978696	644.857562	1403.93604	-605.032825	567.026025	1368.205383	-575.424905	588.505759	1333.12682	-643.814033	516.09307	1253.610129	-683.81209	472.045903	1230.457988	-610.472807	768.917911	1159.618285	-83.231909	900.544357	1188.081755	-182.552489	897.330177	1120.596116	-169.889909	577.213157	1214.656444	-678.8256710000001	703.262059	1116.545157	-595.487438	662.869737	1072.754435	-626.525291	
179	1.566667	749.059428	993.882805	-488.713174	727.3011279999999	990.510776	-245.503766	574.265279	1020.602401	-431.307974	566.332975	1025.217139	-342.151323	644.088753	806.72777	-218.022586	671.638701	679.44994	-253.184411	553.334738	578.246934	-258.885942	756.840038	867.471661	-537.588533	865.224349	807.154913	-514.378359	886.012749	664.660384	-529.678571	517.310656	368.137247	-332.562294	451.12291	329.659712	-279.523131	403.745104	228.597484	-354.928692	866.559624	474.878378	-449.261462	758.610046	453.655881	-510.685176	688.275086	401.439355	-444.819455	228.587361	161.355987	-361.151777	424.513099	63.332865	-374.57578	383.802682	64.410886	-283.806419	519.691345	426.017264	-459.342366	650.411751	251.238298	-442.948905	620.369913	257.034185	-532.285585	702.352591	1456.029042	-555.419773	741.949976	1433.982459	-184.008589	823.833682	1398.073625	-358.476174	696.407663	1494.963527	-368.363847	729.00639	1317.157573	-129.499825	752.938006	1253.020211	-133.330402	659.4337410000001	1227.197568	-88.47208999999999	701.793667	1153.405569	-57.76213	653.465704	1115.827514	-125.259962	641.057275	1413.107977	-604.160681	563.602964	1378.232219	-573.844594	583.433165	1343.292939	-643.087772	509.396802	1265.279887	-682.624299	465.832884	1241.895309	-608.424592	780.008993	1167.647581	-88.574331	905.14789	1200.906502	-194.318604	904.53063	1133.274444	-183.193034	570.402615	1226.69076	-679.165317	697.660087	1128.247352	-598.754836	657.09559	1084.347921	-628.907437	
180	1.575	750.970955	1000.025873	-486.663833	730.601346	994.201522	-245.419339	577.441769	1027.042854	-431.36771	569.945888	1030.588453	-341.441292	639.522881	812.248244	-217.791666	660.246495	684.022217	-253.651452	535.829777	589.792144	-258.564956	763.3963680000001	876.9262680000001	-536.918271	870.225646	817.478944	-513.056147	892.325465	674.082658	-528.116841	494.526079	380.765099	-330.065849	427.754615	343.124731	-276.427543	381.991939	240.335694	-350.892568	884.041925	476.879762	-449.726953	777.8575939999999	445.987212	-509.910287	713.748744	386.025142	-443.614594	208.256025	177.789149	-359.364575	394.109331	62.978229	-373.739558	353.122007	65.95775	-283.672741	543.690579	393.828491	-455.56815	691.0928280000001	232.840238	-442.749766	659.392543	236.419414	-531.7550660000001	699.616372	1462.19297	-555.08369	747.130262	1440.438031	-185.736623	824.018082	1405.073287	-362.057117	696.667027	1500.128162	-368.711562	737.578663	1323.335818	-131.039985	761.564472	1259.122955	-137.32987	670.8322460000001	1233.023502	-86.416121	714.070003	1159.305667	-59.635846	662.574558	1121.613974	-124.832458	638.073032	1421.769229	-603.394501	560.94546	1387.768067	-572.701267	579.294664	1353.007128	-642.638229	503.488173	1276.429385	-681.756516	460.207575	1253.027231	-606.854907	790.272372	1175.872197	-93.624696	908.610977	1213.216477	-205.463521	910.435866	1145.744895	-195.282237	564.335166	1238.142764	-679.875241	692.773783	1139.440528	-601.961153	652.072516	1095.573304	-631.544771	
